<svg xmlns="http://www.w3.org/2000/svg" viewBox="0 0 191.33 161.64"><defs><style>.cls-1{fill:#5ea6d3;}.cls-2{fill:#15298c;}.cls-3{fill:#bddff4;}.cls-4{fill:#90caf4;}.cls-5{fill:#2030a5;}.cls-6{fill:#3d71d9;}.cls-7{fill:#3046b5;}.cls-8{fill:#f74169;}.cls-9{fill:#fe5773;}.cls-10{fill:#2c65d6;}.cls-11{fill:#ca4560;}.cls-12{fill:#e2f1f7;}</style></defs><g id="Layer_2" data-name="Layer 2"><g id="Layer_1-2" data-name="Layer 1"><path class="cls-1" d="M49.76,112.22l.35-.2c-.81-2.59-1-5.9.47-8.2.8-1,.78-.89,6.33-4.11C50.59,97.28,45.82,103.45,49.76,112.22Z"/><path class="cls-2" d="M75,104.81l-3.67,2.12c-2.41-5.15-8.22-10.79-12.73-8.38L57.8,99l-6.49,3.74c5.17-2.76,13,5.08,14.27,13.38.46,3-.35,5.78-2.63,7.22,11.93-6.89,11.13-6.23,11.49-6.46C77.83,114.36,76.77,108.65,75,104.81Z"/><path class="cls-3" d="M61.9,119.52c-1.67.45-3.48-.59-4.81-1.74-3.59-3.09-5.57-9.53-3.12-12C59.29,104.34,65.69,115.61,61.9,119.52Zm-2.79-9.71c-1.67-1.35-2.3-.56-4,.4-2.17,1.24,1,7.15,3.45,6.14.11,0,1.82-1,1.95-1.16C61.84,113.89,60.49,110.92,59.11,109.81Z"/><path class="cls-2" d="M54,105.79c-3.3.89-3.2,7,.94,11.78,1.91,2.07,5,3.92,7,2C56.79,120.9,50.18,109.59,54,105.79Z"/><path class="cls-1" d="M60.18,115.22l.13-.08Z"/><path class="cls-1" d="M57,109.17c-.19.08-1.64.93-1.82,1a1.71,1.71,0,0,1,1.66.12c2.24,1.24,3.45,5,1.86,6a12.85,12.85,0,0,0,2-1.19C62.21,113.28,59.22,108.38,57,109.17Z"/><path class="cls-4" d="M57.11,110.51c1.93,1.17,3.21,4.93,1.48,5.84a1.91,1.91,0,0,1-1.9-.35C53.39,113.48,53.68,108.45,57.11,110.51Z"/><path class="cls-5" d="M51.62,102.39l.28-.12C57,100.49,63,107,65.1,113.63s-1,12.39-7.42,9.16a15.58,15.58,0,0,1-4.58-3.94C49.19,113.84,46.69,105,51.62,102.39Zm4.3,15.68c1.65,1.51,4.19,2.52,5.76,1l.06-.06c1.42-1.63,1.06-4.19.36-6.24-2-5.86-8.52-9.48-10-4.51C51.39,110.63,52.6,115,55.92,118.07Z"/><path class="cls-2" d="M18.16,81.45,15.6,82.92c-1.67-3.58-5.72-7.51-8.86-5.83l-.54.31L1.69,80c3.59-1.92,9,3.53,9.93,9.31a4.85,4.85,0,0,1-1.85,5c8.3-4.79,7.76-4.34,8-4.5C20.14,88.09,19.4,84.12,18.16,81.45Z"/><path class="cls-5" d="M1.9,79.72l.2-.09c3.55-1.24,7.75,3.31,9.18,7.9s-.67,8.62-5.16,6.38a11,11,0,0,1-3.19-2.74C.21,87.68-1.53,81.52,1.9,79.72Zm3,10.9c1.15,1,2.92,1.75,4,.68l0,0c1-1.13.74-2.91.25-4.34-1.39-4.07-5.92-6.59-6.95-3.13C1.75,85.44,2.59,88.51,4.89,90.62Z"/><path class="cls-3" d="M9.09,91.73A4,4,0,0,1,5.71,90.5c-2.52-2.17-3.92-6.69-2.19-8.42C7.25,81.06,11.75,89,9.09,91.73Zm-2-6.83C6,84,5.51,84.51,4.34,85.18c-1.53.87.74,5,2.42,4.32.08,0,1.28-.73,1.37-.82C9,87.77,8.1,85.69,7.13,84.9Z"/><path class="cls-2" d="M3.52,82.08c-2.32.63-2.25,4.94.66,8.27,1.34,1.46,3.51,2.76,4.91,1.38C5.5,92.69.85,84.75,3.52,82.08Z"/><path class="cls-1" d="M7.86,88.69,8,88.63Z"/><path class="cls-1" d="M5.61,84.46c-.12.05-1.14.65-1.27.72a1.21,1.21,0,0,1,1.16.09c1.58.87,2.43,3.49,1.31,4.2a11,11,0,0,0,1.37-.83C9.3,87.34,7.2,83.9,5.61,84.46Z"/><path class="cls-4" d="M5.72,85.4c1.35.81,2.26,3.46,1,4.1a1.36,1.36,0,0,1-1.34-.25C3.11,87.48,3.31,83.94,5.72,85.4Z"/><polygon class="cls-6" points="117.33 134.07 119.86 135.53 114.36 138.71 111.2 136.88 112.52 136.12 113.19 136.46 117.33 134.07"/><path class="cls-7" d="M119.86,135.53l-2.53-1.46.19-.11-.06-1.18s4.68-2.73,4.68-2.73l.81.47v3.23Z"/><polygon class="cls-8" points="122.95 130.52 122.14 130.05 122.96 129.58 126.57 131.66 125.75 132.13 122.95 130.52"/><polygon class="cls-5" points="122.95 133.75 122.95 130.52 125.75 132.13 122.95 133.75"/><polygon class="cls-9" points="126.57 131.66 122.96 129.58 129.22 125.97 129.66 126.22 132.82 128.05 126.57 131.66"/><polygon class="cls-5" points="129.22 125.97 122.96 129.58 122.14 130.05 117.44 132.77 113.12 135.26 112.06 135.87 110.76 136.62 104.51 140.23 104.51 139.02 147.67 114.1 147.67 115.31 141.42 118.92 140.6 119.4 139.75 119.89 135.43 122.38 134.37 123 129.22 125.97"/><polygon class="cls-10" points="141.42 118.92 147.67 115.31 151.28 117.39 145.03 121 141.42 118.92"/><polygon class="cls-10" points="104.51 140.23 110.76 136.62 111.2 136.88 114.36 138.71 109.16 141.71 109.16 142.92 104.51 140.23"/><polygon class="cls-7" points="144.53 142.05 144.53 142.98 143.72 142.51 144.53 142.05"/><polygon class="cls-7" points="143.72 142.51 144.53 142.98 144.53 149.77 138.28 146.16 138.28 145.66 143.72 142.51"/><polygon class="cls-10" points="138.3 146.16 144.55 149.77 132.34 156.82 132.34 150.02 132.34 149.6 138.3 146.16"/><polygon class="cls-10" points="150.8 146.16 150.8 139.37 150.8 138.95 156.75 135.51 163 139.12 150.8 146.16"/><polygon class="cls-7" points="162.99 139.12 156.74 135.51 156.74 135 162.18 131.86 162.99 132.32 162.99 139.12"/><polygon class="cls-10" points="98.26 135.41 98.26 136.62 93.79 134.04 100.04 130.44 103.46 132.41 98.26 135.41"/><polygon class="cls-5" points="100.04 130.44 93.79 134.04 93.79 132.83 136.95 107.91 136.95 109.12 130.7 112.73 129.88 113.2 128.43 114.04 124.11 116.53 123.05 117.15 118.49 119.78 112.24 123.39 111.42 123.86 106.13 126.92 101.81 129.41 100.74 130.03 100.04 130.44"/><polygon class="cls-9" points="112.24 123.39 118.49 119.78 121.92 121.75 115.66 125.36 112.24 123.39"/><polygon class="cls-10" points="130.7 112.73 136.95 109.12 140.37 111.1 134.12 114.71 130.7 112.73"/><polygon class="cls-8" points="112.24 123.39 115.66 125.36 114.84 125.84 111.42 123.86 112.24 123.39"/><polygon class="cls-10" points="141.42 110.43 147.67 114.04 104.51 138.96 98.26 135.35 103.46 132.34 104.36 131.83 105.42 131.21 109.74 128.72 114.84 125.77 115.66 125.3 121.92 121.69 126.66 118.95 127.72 118.33 132.05 115.84 133.3 115.11 134.12 114.64 140.37 111.03 141.42 110.43"/><polygon class="cls-5" points="82.93 127.77 82.93 126.56 126.09 101.64 126.09 102.85 119.84 106.46 119.02 106.94 116.97 108.12 112.92 110.45 107.63 113.51 101.38 117.12 100.56 117.59 99.43 118.25 94.67 121 90.35 123.49 89.92 123.73 89.28 124.1 89.18 124.17 82.93 127.77"/><polygon class="cls-9" points="101.38 117.12 107.63 113.51 108.8 114.19 111.19 115.56 104.94 119.17 101.38 117.12"/><polygon class="cls-10" points="119.84 106.46 126.09 102.85 129.65 104.91 123.4 108.52 119.84 106.46"/><polygon class="cls-10" points="82.93 127.77 89.18 124.17 89.62 124.42 92.74 126.22 87.53 129.22 87.53 130.44 82.93 127.77"/><polygon class="cls-8" points="101.38 117.12 104.94 119.17 104.12 119.65 101.37 118.06 100.56 117.59 101.38 117.12"/><polygon class="cls-10" points="119.84 97.97 126.09 101.58 82.93 126.5 76.68 122.89 82.87 119.31 85.22 117.96 89.54 115.46 95.04 112.28 96.46 111.46 100.78 108.97 106.11 105.9 108.13 104.73 108.22 104.79 112.55 102.29 112.54 102.18 119.84 97.97"/><polygon class="cls-8" points="108.22 104.86 108.13 104.8 106.11 105.96 105.13 105.46 105.02 102.91 104.2 84.42 104.11 82.41 103.9 77.64 102.74 51.29 105.78 49.66 108.22 104.86"/><polygon class="cls-10" points="163 122.95 169.25 126.56 126.09 151.48 119.84 147.87 125.04 144.87 136.43 138.3 137.25 137.82 143.5 134.21 154.88 127.64 155.7 127.17 161.95 123.56 163 122.95"/><polygon class="cls-10" points="119.84 147.87 119.84 149.09 115.41 146.53 121.66 142.92 125.04 144.87 119.84 147.87"/><polygon class="cls-5" points="121.66 142.92 115.41 146.53 115.41 145.32 158.58 120.4 158.58 121.61 152.33 125.22 151.5 125.69 140.12 132.26 133.87 135.87 133.05 136.35 121.66 142.92"/><polygon class="cls-9" points="133.87 135.87 140.12 132.26 143.5 134.21 137.25 137.82 133.87 135.87"/><polygon class="cls-10" points="152.33 125.22 158.58 121.61 161.95 123.56 155.7 127.17 152.33 125.22"/><polygon class="cls-8" points="133.87 135.87 137.25 137.82 136.43 138.3 133.05 136.35 133.87 135.87"/><polygon class="cls-10" points="130.7 104.24 136.95 107.85 93.79 132.77 87.53 129.16 92.74 126.15 93.04 125.98 94.1 125.37 98.42 122.87 101.37 121.17 104.12 119.58 104.94 119.11 111.19 115.5 115.35 113.1 116.41 112.49 120.73 109.99 122.58 108.93 123.4 108.45 129.65 104.84 130.7 104.24"/><polygon class="cls-10" points="152.33 116.72 158.58 120.33 115.41 145.25 109.16 141.64 114.36 138.64 119.86 135.47 122.95 133.68 125.75 132.07 126.57 131.59 132.82 127.98 138.32 124.81 141.41 123.03 144.21 121.41 145.03 120.94 151.28 117.33 152.33 116.72"/><polygon class="cls-7" points="162.99 132.32 162.18 131.86 162.99 131.39 162.99 132.32"/><path class="cls-7" d="M119.84,147.87v1.22l-4.43-2.56v-1.21l-6.25-3.61v1.21l-4.65-2.69V139l-6.25-3.61v1.21L93.79,134v-1.21l-6.25-3.61v1.21l-4.61-2.66v-1.21L76.68,123v1.2s0,.95,0,.95v8l6.25,3.61v-8l5.89,3.4,1,.61,8.39,4.84v8l6.25,3.61v-8l5.89,3.4,1.05.61,8.39,4.84v8l6.25,3.61v-9s0-1.2,0-1.2Z"/><polygon class="cls-5" points="104.49 141.17 104.49 147.97 104.49 149.18 111.43 145.18 110.38 144.57 104.49 141.17"/><path class="cls-5" d="M126.09,151.48v1.21s0,.94,0,.94v8l43.17-24.92v-8.94L163,131.39v7.73l-12.21,7v-7.73l6-3.44,5.44-3.14.81-.47,6.25-3.61s0-1.22,0-1.22Zm18.44-8.5v6.79l-12.2,7v-7.73l5.95-3.43,5.45-3.15.8-.46Z"/><polygon class="cls-5" points="82.91 128.71 82.91 135.51 82.91 136.72 89.85 132.72 88.8 132.11 82.91 128.71"/><polygon class="cls-6" points="100.56 117.59 101.37 118.06 101.37 121.24 98.42 122.94 95.38 121.36 99.47 119.17 99.43 118.25 100.56 117.59"/><polygon class="cls-11" points="99.43 118.25 99.47 119.17 95.38 121.36 94.67 121 99.43 118.25"/><polygon class="cls-5" points="101.37 121.24 101.37 118.06 104.12 119.65 101.37 121.24"/><polygon class="cls-7" points="154.88 127.64 151.5 125.69 152.33 125.22 155.7 127.17 154.88 127.64"/><polygon class="cls-7" points="119.84 106.46 123.4 108.52 122.58 108.99 119.82 107.4 119.02 106.94 119.84 106.46"/><polygon class="cls-7" points="119.02 106.94 119.82 107.4 119.82 109.59 117.26 108.26 116.97 108.12 119.02 106.94"/><polygon class="cls-5" points="119.82 109.59 119.82 107.4 122.58 108.99 120.73 110.06 119.82 109.59"/><polygon class="cls-7" points="130.7 112.73 134.12 114.71 133.3 115.18 129.88 113.2 130.7 112.73"/><polygon class="cls-7" points="141.42 118.92 145.03 121 144.21 121.48 141.41 119.86 140.6 119.4 141.42 118.92"/><polygon class="cls-7" points="140.6 119.4 141.41 119.86 141.41 123.09 138.32 124.88 136.48 123.81 140.55 121.46 140.5 120.27 139.75 119.89 140.6 119.4"/><polygon class="cls-6" points="136.48 123.81 138.32 124.88 132.82 128.05 129.66 126.22 134.83 123.23 136.23 123.96 136.48 123.81"/><polygon class="cls-5" points="141.41 123.09 141.41 119.86 144.21 121.48 141.41 123.09"/><polygon class="cls-9" points="105.13 105.46 106.11 105.96 100.78 109.03 100.74 108 105.13 105.46"/><polygon class="cls-8" points="104.36 131.89 100.74 130.03 101.81 129.41 105.42 131.28 104.36 131.89"/><polygon class="cls-11" points="140.5 120.27 140.55 121.46 136.48 123.81 136.23 123.96 136.17 122.77 140.5 120.27"/><polygon class="cls-8" points="136.17 122.77 136.23 123.96 134.83 123.23 134.37 123 135.43 122.38 136.17 122.77"/><polygon class="cls-8" points="126.66 119.01 123.05 117.15 124.11 116.53 127.72 118.4 126.66 119.01"/><polygon class="cls-11" points="117.46 132.78 117.52 133.96 117.33 134.07 113.19 136.46 113.14 135.27 117.46 132.78"/><polygon class="cls-8" points="113.14 135.27 113.19 136.46 112.52 136.12 112.06 135.87 113.12 135.26 113.14 135.27"/><polygon class="cls-9" points="105.42 131.28 101.81 129.41 106.13 126.92 109.74 128.78 105.42 131.28"/><polygon class="cls-9" points="127.72 118.4 124.11 116.53 128.43 114.04 132.05 115.91 127.72 118.4"/><polygon class="cls-9" points="136.17 122.77 135.43 122.38 139.75 119.89 140.5 120.27 136.17 122.77"/><polygon class="cls-8" points="82.64 59.68 85.22 118.02 82.87 119.38 82.72 115.79 81.9 97.29 80.83 73.17 80.68 69.72 80.18 58.41 82.64 59.68"/><polygon class="cls-9" points="106.81 43.03 102.48 45.53 102.29 45.64 95.74 49.42 95.2 49.73 91.47 51.89 91.42 51.92 84.5 55.91 80.18 58.41 82.64 59.68 86.96 57.18 105.64 47.16 106.63 46.63 110 44.68 106.81 43.03"/><polygon class="cls-11" points="116.97 108.12 117.26 108.26 112.94 110.76 112.92 110.45 116.97 108.12"/><polygon class="cls-9" points="112.94 110.76 117.26 108.26 119.82 109.59 120.73 110.06 116.41 112.55 112.94 110.76"/><polygon class="cls-8" points="112.94 110.76 116.41 112.55 115.35 113.17 112.99 111.95 112.94 110.76"/><polygon class="cls-11" points="112.94 110.76 112.99 111.95 108.8 114.19 107.63 113.51 112.92 110.45 112.94 110.76"/><polygon class="cls-6" points="108.8 114.19 112.99 111.95 115.35 113.17 111.19 115.56 108.8 114.19"/><polygon class="cls-4" points="72.83 116.07 72.93 115.73 73.02 115.37 73.09 115 73.14 114.62 73.18 114.23 73.21 113.82 73.22 113.41 73.21 112.99 73.18 112.56 73.14 112.12 73.09 111.67 73.02 111.22 72.93 110.77 72.83 110.31 72.72 109.85 72.58 109.38 72.44 108.91 72.28 108.45 72.1 107.98 71.92 107.52 71.72 107.06 71.57 106.75 77.28 103.45 77.28 118.92 72.75 116.31 72.83 116.07"/><path class="cls-3" d="M111.49,78.45l1.52.88s-1.52-.85-1.52-.85Z"/><polygon class="cls-12" points="69.71 51.02 77.53 56.31 70.36 60.45 70.27 60.42 69.99 60.34 69.69 60.27 69.39 60.21 69.08 60.15 68.75 60.1 68.42 60.06 68.07 60.03 67.71 60.01 67.35 59.99 66.98 59.98 66.61 59.98 66.22 59.99 65.83 60 65.43 60.03 65.03 60.06 64.69 60.09 63.81 54.42 69.71 51.02"/><path class="cls-1" d="M77.53,56.31l-2.68,10L70,69.15l-.13-.66C73.25,66.7,73.11,65,73.11,65a16.67,16.67,0,0,1-.48-2.48c-.14-1.15-1.18-1.72-2.27-2.08Z"/><polygon class="cls-3" points="74.84 66.35 80.68 69.72 80.83 73.17 71.88 78.33 70 69.15 74.84 66.35"/><polygon class="cls-12" points="71.88 78.33 80.83 73.17 81.9 97.29 76.42 100.46 70.4 96.98 68.31 83.53 72.46 81.13 71.88 78.33"/><path class="cls-2" d="M72.46,81.13l-4.14,2.39L66.21,69.93a18.3,18.3,0,0,0,3.66-1.44c.41,2,1.6,7.82,2,9.84Z"/><polygon class="cls-3" points="14.42 72.84 6.91 68.51 14 64.42 14 59.36 29.17 50.6 29.32 63.04 17.01 70.15 14.42 72.84"/><polygon class="cls-1" points="14 64.42 6.91 68.51 6.91 30.47 14 34.56 14 59.36 14 64.42"/><polygon class="cls-3" points="47.91 101.24 31.16 91.57 55.59 77.47 57.05 86.9 47.91 92.18 47.91 101.24"/><polygon class="cls-12" points="47.91 92.18 57.05 86.9 58.85 98.49 47.91 92.18"/><polygon class="cls-1" points="31.16 91.57 33.85 81.53 46.62 74.16 54.39 69.67 55.59 77.47 31.16 91.57"/><polygon class="cls-5" points="54.39 69.67 46.62 74.16 47.01 69.14 53.7 65.27 54.39 69.67"/><polygon class="cls-12" points="33.85 81.53 17.01 70.15 29.32 63.04 29.78 62.78 33.89 65.55 46.62 74.16 33.85 81.53"/><polygon class="cls-10" points="33.89 65.55 29.78 62.78 30.16 57.75 33.82 60.22 33.89 65.55"/><polygon class="cls-10" points="46.62 74.16 33.89 65.55 33.82 60.22 47.01 69.14 46.62 74.16"/><polygon class="cls-1" points="69.33 108.04 69.33 104.55 76.42 100.46 81.9 97.29 82.72 115.79 77.28 118.92 77.28 103.45 71.57 106.75 69.33 108.04"/><polygon class="cls-1" points="105.02 102.91 100.63 105.45 99.81 86.95 104.2 84.42 105.02 102.91"/><path class="cls-1" d="M113,82.82l-1.29.75-.15-3.41,1.42-.82S113,82.82,113,82.82Z"/><polygon class="cls-12" points="112.99 79.34 111.57 80.17 111.49 78.48 112.99 79.34"/><polygon class="cls-12" points="104.2 84.42 99.81 86.95 99.49 79.73 99.88 79.96 104.11 82.41 104.2 84.42"/><polygon class="cls-4" points="99.88 79.96 99.49 79.73 99.35 76.53 99.88 79.96"/><polygon class="cls-12" points="76.42 100.46 69.33 104.55 63.31 101.07 70.4 96.98 76.42 100.46"/><path class="cls-1" d="M70.4,97l-7.09,4.09L56.39,56.34l7.08-4.1.34,2.18.88,5.67.14.89.88,5.73c.61,3.89-.63-4.09,2.61,16.81Z"/><polygon class="cls-12" points="104.11 82.41 99.88 79.96 103.9 77.64 104.11 82.41"/><polygon class="cls-1" points="103.9 77.64 99.88 79.96 99.35 76.53 98.33 53.64 102.74 51.29 103.9 77.64"/><polygon class="cls-3" points="99.76 31.03 100.04 31.13 92.96 35.22 92.67 35.12 99.76 31.03"/><polygon class="cls-1" points="99.76 31.03 92.67 35.12 92.67 37.76 89.56 39.56 69.71 51.02 63.81 54.42 63.48 52.24 63.19 52.15 56.1 56.24 56.1 56.13 99.76 30.93 99.76 31.03"/><polygon class="cls-3" points="56.1 56.24 63.19 52.15 63.48 52.24 56.39 56.34 56.1 56.24"/><polygon class="cls-4" points="92.67 37.76 92.67 35.12 92.96 35.22 95.2 49.73 91.47 51.89 89.56 39.56 92.67 37.76"/><polygon class="cls-1" points="92.96 35.22 100.04 31.13 102.29 45.64 95.74 49.42 95.2 49.73 92.96 35.22"/><path class="cls-4" d="M63.31,101.07,56.39,56.34l-.29-.1v-.11L2.53,25.2V77.58c3.1-3,10.4,1.71,12.35,9.74a9.51,9.51,0,0,1,0,4.77l34.86,20.13a21.51,21.51,0,0,1-.73-2.56c-2.32-11.63,6.8-14,14.28-5.1l6,3.48v-3.49Zm-15.4-8.89v9.06L31.16,91.57l2.69-10L17,70.15l-2.59,2.69L6.91,68.51v-38L14,34.57l15.43,8.9,4.49,2.6L46,53l.37.21,6.06,3.5.15.94,1.17,7.61.69,4.4,1.2,7.8,1.46,9.43,1.8,11.59Z"/><path class="cls-7" d="M72.52,62a1.68,1.68,0,0,1,.09.33,2,2,0,0,1,0,.34,2.22,2.22,0,0,1,0,.36c-.63,2.29-4.44,3.88-6.74,4.53l-.14-.88c7-2.28,6.16-6.3-.88-5.73l-.14-.89C71.75,59.32,72.52,62,72.52,62Z"/><path class="cls-2" d="M66,66.62l-.27.09L64.83,61a15.06,15.06,0,0,1,2,0C72.47,61.19,71.66,64.78,66,66.62Z"/><path class="cls-2" d="M72.64,62.7c-.19,2.43-4.43,4.22-6.79,4.89l.36,2.34c2.38-.68,6.7-2.45,6.9-4.92Z"/><polygon class="cls-12" points="99.76 30.93 56.1 56.13 2.53 25.2 46.19 0 99.76 30.93"/><polygon class="cls-10" points="30.16 57.75 29.78 62.78 29.32 63.04 29.17 50.6 29.08 43.67 33.65 46.23 33.82 60.22 30.16 57.75"/><polygon class="cls-5" points="33.82 60.22 33.65 46.23 33.92 46.07 45.95 53.01 45.96 53.21 33.82 60.22"/><polygon class="cls-7" points="33.82 60.22 45.96 53.21 46.13 53.33 52.53 57.66 53.7 65.27 47.01 69.14 33.82 60.22"/><polygon class="cls-7" points="33.65 46.23 29.08 43.67 29.43 43.47 33.92 46.07 33.65 46.23"/><polygon class="cls-3" points="45.96 53.21 45.95 53.01 46.32 53.22 46.13 53.33 45.96 53.21"/><polygon class="cls-12" points="46.13 53.33 46.32 53.22 52.38 56.72 52.53 57.66 46.13 53.33"/><polygon class="cls-6" points="92.74 126.22 89.62 124.42 89.75 124.34 89.95 124.45 93.04 126.04 92.74 126.22"/><polygon class="cls-8" points="93.04 126.04 89.95 124.45 89.92 123.73 90.35 123.49 94.1 125.43 93.04 126.04"/><polygon class="cls-9" points="94.1 125.43 90.35 123.49 94.67 121 95.38 121.36 98.42 122.94 94.1 125.43"/><polygon class="cls-8" points="89.92 123.73 89.95 124.45 89.75 124.34 89.28 124.1 89.92 123.73"/><polygon class="cls-9" points="89.54 115.53 89.5 114.49 94.07 111.85 95.04 112.35 89.54 115.53"/><polygon class="cls-8" points="95.04 112.35 94.07 111.85 93.96 109.3 93.14 90.8 92.1 67.25 91.66 57.22 94 55.96 96.46 111.53 95.04 112.35"/><path class="cls-11" d="M112.54,102.25l-.82-18.68-.15-3.41-.08-1.68S110,44.68,110,44.68l-3.37,2-1,.55L87,57.18l-4.32,2.5L85.22,118l4.32-2.49-.05-1-.11-2.55-.82-18.5L87.5,69.32l-.43-9.65,4.59-2.45L94,56l2.46,55.57,4.32-2.5,0-1-.11-2.55L99.81,87l-.32-7.22-.14-3.2-1-22.89,4.4-2.35,3-1.63,2.44,55.2,4.33-2.5Z"/><polygon class="cls-1" points="93.96 109.3 89.38 111.94 88.56 93.44 93.14 90.8 93.96 109.3"/><polygon class="cls-12" points="93.14 90.8 88.56 93.44 87.5 69.32 91.59 66.96 92.1 67.25 93.14 90.8"/><polygon class="cls-7" points="119.13 142.78 111.48 138.36 107.29 135.95 106.01 135.2 98.36 130.79 94.01 128.28 92.72 127.53 89.41 125.62 89.41 120.62 89.41 74.6 143.81 106.01 143.81 157.03 137.88 153.6 133.75 151.22 132.46 150.48 124.82 146.06 120.41 143.52 119.13 142.78"/><polygon class="cls-5" points="191.33 129.59 143.81 157.03 143.81 106.01 191.33 78.57 191.33 127.45 191.33 129.59"/><polygon class="cls-10" points="89.41 74.6 136.93 47.16 191.33 78.57 143.81 106.01 89.41 74.6"/><polygon class="cls-3" points="121.43 76.82 116.19 73.79 113.32 72.14 112.44 71.63 107.2 68.6 104.22 66.88 103.34 66.37 101.06 65.06 101.06 61.63 101.06 30.09 138.36 51.62 138.36 86.59 134.29 84.24 131.46 82.61 130.58 82.1 125.33 79.07 122.31 77.33 121.43 76.82"/><polygon class="cls-4" points="170.93 67.78 138.36 86.59 138.36 51.62 170.93 32.81 170.93 66.32 170.93 67.78"/><polygon class="cls-12" points="101.06 30.09 133.64 11.28 170.93 32.81 138.36 51.62 101.06 30.09"/></g></g></svg>